<?xml version="1.0" encoding="UTF-8" standalone="no"?>
<!-- Created with Inkscape (http://www.inkscape.org/) -->

<svg
   width="800mm"
   height="400mm"
   viewBox="0 0 800 400"
   version="1.1"
   id="svg5"
   xml:space="preserve"
   inkscape:version="1.2.1 (9c6d41e410, 2022-07-14)"
   sodipodi:docname="repository-banner.svg"
   xmlns:inkscape="http://www.inkscape.org/namespaces/inkscape"
   xmlns:sodipodi="http://sodipodi.sourceforge.net/DTD/sodipodi-0.dtd"
   xmlns:xlink="http://www.w3.org/1999/xlink"
   xmlns="http://www.w3.org/2000/svg"
   xmlns:svg="http://www.w3.org/2000/svg"
   xmlns:rdf="http://www.w3.org/1999/02/22-rdf-syntax-ns#"
   xmlns:cc="http://creativecommons.org/ns#"
   xmlns:dc="http://purl.org/dc/elements/1.1/"><sodipodi:namedview
     id="namedview7"
     pagecolor="#ffffff"
     bordercolor="#000000"
     borderopacity="0.25"
     inkscape:showpageshadow="2"
     inkscape:pageopacity="0.0"
     inkscape:pagecheckerboard="0"
     inkscape:deskcolor="#d1d1d1"
     inkscape:document-units="mm"
     showgrid="false"
     inkscape:zoom="0.22158854"
     inkscape:cx="1065.037"
     inkscape:cy="1123.7043"
     inkscape:window-width="1920"
     inkscape:window-height="1137"
     inkscape:window-x="-8"
     inkscape:window-y="537"
     inkscape:window-maximized="1"
     inkscape:current-layer="layer1" /><defs
     id="defs2"><linearGradient
       inkscape:collect="always"
       id="linearGradient1031"><stop
         style="stop-color:#06005f;stop-opacity:1;"
         offset="0"
         id="stop1027" /><stop
         style="stop-color:#ffffff;stop-opacity:1;"
         offset="1"
         id="stop1029" /></linearGradient><linearGradient
       inkscape:collect="always"
       xlink:href="#linearGradient1031"
       id="linearGradient1033"
       x1="399.35703"
       y1="-2.1107731"
       x2="400.20135"
       y2="400.62347"
       gradientUnits="userSpaceOnUse" /></defs><g
     inkscape:label="Calque 1"
     inkscape:groupmode="layer"
     id="layer1"><rect
       style="fill:url(#linearGradient1033);fill-opacity:1;stroke-width:0.215"
       id="rect950"
       width="807.1571"
       height="406.11145"
       x="-3.3772264"
       y="-0.84430671" /><g
       id="g1931"
       transform="translate(23.880597,35.820896)"><g
         id="g1399"
         inkscape:label="logo"
         transform="translate(18.3915,40.597675)"><path
           style="fill:#06005f;fill-opacity:1;stroke-width:0.229442"
           d="M 19.104473,180.69875 C 8.2092435,149.91224 75.653903,37.839308 132.53731,36.557002 193.31548,35.186889 271.97272,147.97689 255.52239,182.05858 c -17.58736,36.43737 -85.65865,35.474 -130.14926,33.99569 -39.784067,-1.32193 -94.805917,-2.96545 -106.268657,-35.35552 z"
           id="path388"
           sodipodi:nodetypes="sssss"
           inkscape:label="enocean" /><g
           id="g1389"
           inkscape:label="shutter"><path
             id="path1094"
             style="fill:#fbfbff;fill-opacity:1;stroke-width:0.202582"
             d="M 194.03054,84.323535 81.760901,84.721961 74.50708,89.914409 v 16.324071 l 7.253821,5.57847 v 79.38275 l 6.249231,6.62389 H 188.49806 l 5.53248,-5.85081 v -81.35111 l 7.54476,-4.38319 V 89.914409 Z M 183.52989,111.0263 v 77.6764 H 92.766948 v -77.2449 z" /><rect
             style="fill:#ffffff;fill-opacity:1;stroke-width:0.215"
             id="rect1261"
             width="86.284966"
             height="10.600472"
             x="94.898705"
             y="113.28194" /><rect
             style="fill:#ffffff;fill-opacity:1;stroke-width:0.215"
             id="rect1261-9"
             width="86.284966"
             height="10.600472"
             x="94.898705"
             y="125.24709" /><rect
             style="fill:#ffffff;fill-opacity:1;stroke-width:0.215"
             id="rect1261-9-8"
             width="86.284966"
             height="10.600472"
             x="94.898705"
             y="137.21223" /><rect
             style="fill:#ffffff;fill-opacity:1;stroke-width:0.215"
             id="rect1261-9-8-7"
             width="86.284966"
             height="10.600472"
             x="94.898705"
             y="149.17737" /><rect
             style="fill:#ffffff;fill-opacity:1;stroke-width:0.215"
             id="rect1381"
             width="3.283582"
             height="29.552237"
             x="136.3994"
             y="161.49254" /></g></g><g
         id="g2480"
         transform="matrix(1.4478658,0,0,1.4478658,-147.15149,371.99163)"
         inkscape:label="text-2"
         style="fill:#ffffff;fill-opacity:1"><path
           d="m 334.51146,-146.90936 h -8.8539 l 3.30729,-19.80932 -11.95449,-27.21627 h 9.68073 l 8.33714,20.32608 13.36698,-20.32608 h 8.13043 l -18.77579,27.62969 z"
           style="font-style:italic;font-weight:bold;font-size:70.5556px;font-family:'Franklin Gothic Medium';-inkscape-font-specification:'Franklin Gothic Medium, Italic';fill:#ffffff;fill-opacity:1;stroke-width:0.215"
           id="path2422" /><path
           d="m 364.75942,-146.01364 q -3.89296,0 -7.54476,-1.72255 -3.61736,-1.72255 -5.54661,-5.44325 -1.89481,-3.75516 -1.89481,-8.9228 0,-8.37159 4.92649,-14.46941 4.92649,-6.13228 12.88467,-6.13228 6.54569,0 10.4731,4.40973 3.92741,4.37527 3.92741,11.78223 0,7.61367 -4.68533,14.056 -4.68534,6.44233 -12.54016,6.44233 z m 0.0689,-6.30453 q 4.68533,0 6.8902,-4.82313 2.20486,-4.85759 2.20486,-10.16304 0,-9.09506 -7.028,-9.09506 -4.92649,0 -7.06245,5.2021 -2.13596,5.2021 -2.13596,10.36974 0,4.37528 2.06706,6.44233 2.06706,2.06706 5.06429,2.06706 z"
           style="font-style:italic;font-weight:bold;font-size:70.5556px;font-family:'Franklin Gothic Medium';-inkscape-font-specification:'Franklin Gothic Medium, Italic';fill:#ffffff;fill-opacity:1;stroke-width:0.215"
           id="path2424" /><path
           d="m 419.22642,-146.90936 h -8.33714 l -6.09782,-18.67243 -9.23286,8.54384 -1.6881,10.12859 h -7.71702 l 7.85482,-47.02559 h 7.71702 l -4.71978,28.35316 17.6389,-16.36422 h 8.23378 l -11.88558,11.05877 z"
           style="font-style:italic;font-weight:bold;font-size:70.5556px;font-family:'Franklin Gothic Medium';-inkscape-font-specification:'Franklin Gothic Medium, Italic';fill:#ffffff;fill-opacity:1;stroke-width:0.215"
           id="path2426" /><path
           d="m 439.03573,-186.01122 h -8.09598 l 1.41249,-8.40604 h 8.09598 z m -6.54568,39.10186 h -8.09598 l 5.85666,-35.03665 h 8.09598 z"
           style="font-style:italic;font-weight:bold;font-size:70.5556px;font-family:'Franklin Gothic Medium';-inkscape-font-specification:'Franklin Gothic Medium, Italic';fill:#ffffff;fill-opacity:1;stroke-width:0.215"
           id="path2428" /><path
           d="m 446.20153,-157.21021 q 2.03261,5.23655 8.30269,5.23655 3.13503,0 4.92649,-1.27468 1.8259,-1.30914 1.8259,-3.3073 0,-1.48139 -1.24024,-2.34266 -1.20578,-0.86128 -4.13412,-1.6881 -4.71978,-1.30914 -6.99354,-2.41157 -2.27377,-1.10243 -3.82406,-3.3762 -1.5503,-2.27376 -1.5503,-5.20209 0,-4.58198 3.47955,-7.95818 3.47955,-3.41065 9.81853,-3.41065 10.30084,0 14.46941,8.26824 l -6.64904,2.13596 q -2.30821,-4.58198 -7.61366,-4.58198 -2.37712,0 -4.03077,1.10243 -1.65364,1.10243 -1.65364,2.96278 0,1.30914 0.79237,2.17042 0.82682,0.86127 3.27284,1.55029 5.58106,1.65365 8.26824,2.89388 2.72162,1.20579 4.27192,3.47955 1.58474,2.23932 1.58474,5.16765 0,4.96094 -3.82406,8.30268 -3.7896,3.34175 -11.26547,3.34175 -11.95449,0 -15.60629,-9.26731 z"
           style="font-style:italic;font-weight:bold;font-size:70.5556px;font-family:'Franklin Gothic Medium';-inkscape-font-specification:'Franklin Gothic Medium, Italic';fill:#ffffff;fill-opacity:1;stroke-width:0.215"
           id="path2430" /></g><g
         id="g2489"
         transform="matrix(1.4478658,0,0,1.4478658,-116.75645,316.26739)"
         inkscape:label="text-1"
         style="fill:#ffffff;fill-opacity:1"><path
           d="m 346.53485,-68.60229 q -4.82313,10.748705 -15.29623,10.748705 -6.8902,0 -10.85206,-4.23747 -3.92741,-4.23747 -3.92741,-11.26547 0,-8.957254 4.96094,-15.123979 4.99539,-6.166725 12.81576,-6.166725 7.028,0 10.6109,4.444176 3.61736,4.444176 3.61736,12.126744 0,1.274687 -0.10336,2.756079 h -24.08123 q -0.24116,1.481392 -0.24116,2.618274 0,3.961862 1.89481,6.373431 1.92925,2.411568 5.44325,2.411568 5.44326,0 8.26824,-6.511235 z m -5.37435,-11.713332 q 0,-8.888353 -6.8902,-8.888353 -7.13135,0 -9.16396,8.888353 z"
           style="font-style:italic;font-weight:bold;font-size:70.5556px;font-family:'Franklin Gothic Medium';-inkscape-font-specification:'Franklin Gothic Medium, Italic';fill:#ffffff;fill-opacity:1;stroke-width:0.215"
           id="path2432" /><path
           d="m 381.15808,-58.714859 h -7.71701 l 3.5829,-21.049548 q 0.37896,-2.377117 0.37896,-4.065215 0,-1.929255 -1.10243,-3.238392 -1.06798,-1.343588 -3.27285,-1.343588 -3.514,0 -6.20117,3.582902 -2.68718,3.54845 -3.78961,10.335293 l -2.65272,15.778548 h -7.71702 l 5.85666,-35.036645 h 7.16581 l -1.37804,8.164882 q 3.27284,-6.132274 6.06337,-7.613666 2.79053,-1.515843 5.44325,-1.515843 3.82406,0 6.61459,2.618274 2.82498,2.583824 2.82498,7.234706 0,1.825901 -0.68902,5.822215 z"
           style="font-style:italic;font-weight:bold;font-size:70.5556px;font-family:'Franklin Gothic Medium';-inkscape-font-specification:'Franklin Gothic Medium, Italic';fill:#ffffff;fill-opacity:1;stroke-width:0.215"
           id="path2434" /><path
           d="m 406.20395,-57.819134 q -3.89296,0 -7.54477,-1.722548 -3.61735,-1.722549 -5.54661,-5.443255 -1.8948,-3.755157 -1.8948,-8.922803 0,-8.371588 4.92649,-14.469411 4.92649,-6.132274 12.88467,-6.132274 6.54568,0 10.47309,4.409725 3.92742,4.375274 3.92742,11.782234 0,7.613667 -4.68534,14.056 -4.68533,6.442332 -12.54015,6.442332 z m 0.0689,-6.304529 q 4.68533,0 6.89019,-4.823136 2.20487,-4.857588 2.20487,-10.163039 0,-9.095058 -7.028,-9.095058 -4.92649,0 -7.06245,5.202097 -2.13596,5.202098 -2.13596,10.369745 0,4.375274 2.06705,6.442333 2.06706,2.067058 5.0643,2.067058 z"
           style="font-style:italic;font-weight:bold;font-size:70.5556px;font-family:'Franklin Gothic Medium';-inkscape-font-specification:'Franklin Gothic Medium, Italic';fill:#ffffff;fill-opacity:1;stroke-width:0.215"
           id="path2436" /><path
           d="m 457.08804,-69.119054 q -4.96094,11.162117 -14.88283,11.162117 -6.16672,0 -10.05968,-4.134118 -3.89296,-4.168568 -3.89296,-11.678881 0,-8.474941 4.78868,-14.745019 4.78869,-6.270078 12.0234,-6.270078 5.4777,0 9.1295,3.203941 3.68626,3.16949 4.61644,9.026156 l -6.54569,1.274686 q -1.37804,-6.890195 -6.85574,-6.890195 -4.06522,0 -6.61459,4.616431 -2.54937,4.616431 -2.54937,10.645352 0,4.58198 1.92925,6.511235 1.92925,1.894804 4.58198,1.894804 5.16765,0 7.85482,-6.924647 z"
           style="font-style:italic;font-weight:bold;font-size:70.5556px;font-family:'Franklin Gothic Medium';-inkscape-font-specification:'Franklin Gothic Medium, Italic';fill:#ffffff;fill-opacity:1;stroke-width:0.215"
           id="path2438" /><path
           d="m 491.98688,-68.60229 q -4.82314,10.748705 -15.29624,10.748705 -6.89019,0 -10.85205,-4.23747 -3.92741,-4.23747 -3.92741,-11.26547 0,-8.957254 4.96094,-15.123979 4.99539,-6.166725 12.81576,-6.166725 7.028,0 10.6109,4.444176 3.61735,4.444176 3.61735,12.126744 0,1.274687 -0.10335,2.756079 h -24.08123 q -0.24116,1.481392 -0.24116,2.618274 0,3.961862 1.8948,6.373431 1.92926,2.411568 5.44326,2.411568 5.44325,0 8.26823,-6.511235 z m -5.37435,-11.713332 q 0,-8.888353 -6.8902,-8.888353 -7.13135,0 -9.16396,8.888353 z"
           style="font-style:italic;font-weight:bold;font-size:70.5556px;font-family:'Franklin Gothic Medium';-inkscape-font-specification:'Franklin Gothic Medium, Italic';fill:#ffffff;fill-opacity:1;stroke-width:0.215"
           id="path2440" /><path
           d="m 527.19577,-58.714859 h -7.61366 q -0.0689,-0.930176 -0.0689,-1.515843 0,-2.514921 0.62011,-6.028921 -1.72255,3.927411 -4.96094,6.201176 -3.23839,2.239313 -7.13135,2.239313 -4.68533,0 -7.64812,-2.893882 -2.92833,-2.928333 -2.92833,-7.200254 0,-5.891117 5.23655,-9.370666 5.271,-3.479549 16.46757,-3.479549 1.44694,0 3.37619,0.137804 0.24116,-1.584745 0.24116,-2.514921 0,-2.824981 -1.96371,-4.271922 -1.92925,-1.446941 -4.82313,-1.446941 -5.54661,0 -8.09598,4.857588 l -6.8902,-2.170412 q 4.34082,-8.543842 15.33069,-8.543842 6.54568,0 10.33529,2.962784 3.78961,2.962784 3.78961,7.889274 0,2.10151 -1.65365,11.093215 -1.757,9.474019 -1.757,12.023391 0,0.930177 0.1378,2.032608 z m -5.3399,-17.880058 q -8.9917,0.482314 -12.5057,2.377118 -3.514,1.894804 -3.514,5.546607 0,2.10151 1.41249,3.445098 1.41249,1.309137 3.85851,1.309137 3.514,0 6.51123,-3.066137 2.99724,-3.100588 4.23747,-9.611823 z"
           style="font-style:italic;font-weight:bold;font-size:70.5556px;font-family:'Franklin Gothic Medium';-inkscape-font-specification:'Franklin Gothic Medium, Italic';fill:#ffffff;fill-opacity:1;stroke-width:0.215"
           id="path2442" /><path
           d="m 564.40283,-58.714859 h -7.71702 l 3.5829,-21.049548 q 0.37897,-2.377117 0.37897,-4.065215 0,-1.929255 -1.10244,-3.238392 -1.06798,-1.343588 -3.27284,-1.343588 -3.514,0 -6.20117,3.582902 -2.68718,3.54845 -3.78961,10.335293 l -2.65273,15.778548 h -7.71702 l 5.85667,-35.036645 h 7.1658 l -1.37804,8.164882 q 3.27285,-6.132274 6.06338,-7.613666 2.79053,-1.515843 5.44325,-1.515843 3.82406,0 6.61459,2.618274 2.82498,2.583824 2.82498,7.234706 0,1.825901 -0.68902,5.822215 z"
           style="font-style:italic;font-weight:bold;font-size:70.5556px;font-family:'Franklin Gothic Medium';-inkscape-font-specification:'Franklin Gothic Medium, Italic';fill:#ffffff;fill-opacity:1;stroke-width:0.215"
           id="path2444" /></g></g></g><metadata
     id="metadata336"><rdf:RDF><cc:Work
         rdf:about=""><cc:license
           rdf:resource="http://creativecommons.org/licenses/by-nc-sa/4.0/" /><dc:date>2024-12-15</dc:date><dc:creator><cc:Agent><dc:title>https://github.com/ORelio/</dc:title></cc:Agent></dc:creator><dc:rights><cc:Agent><dc:title>CC BY-NC-SA v4.0</dc:title></cc:Agent></dc:rights><dc:title>Yokis-Enocean Banner</dc:title></cc:Work><cc:License
         rdf:about="http://creativecommons.org/licenses/by-nc-sa/4.0/"><cc:permits
           rdf:resource="http://creativecommons.org/ns#Reproduction" /><cc:permits
           rdf:resource="http://creativecommons.org/ns#Distribution" /><cc:requires
           rdf:resource="http://creativecommons.org/ns#Notice" /><cc:requires
           rdf:resource="http://creativecommons.org/ns#Attribution" /><cc:prohibits
           rdf:resource="http://creativecommons.org/ns#CommercialUse" /><cc:permits
           rdf:resource="http://creativecommons.org/ns#DerivativeWorks" /><cc:requires
           rdf:resource="http://creativecommons.org/ns#ShareAlike" /></cc:License></rdf:RDF></metadata></svg>
